<?xml version="1.0" standalone="no"?>
<!DOCTYPE svg PUBLIC "-//W3C//DTD SVG 20010904//EN"
 "http://www.w3.org/TR/2001/REC-SVG-20010904/DTD/svg10.dtd">
<svg version="1.0" xmlns="http://www.w3.org/2000/svg"
 width="550.000000pt" height="470.000000pt" viewBox="0 0 550.000000 470.000000"
 preserveAspectRatio="xMidYMid meet">

<g transform="translate(0.000000,470.000000) scale(0.100000,-0.100000)"
fill="#000000" stroke="none">
<path d="M3813 4403 c-27 -6 -56 -12 -66 -13 -10 0 -47 -14 -82 -30 -75 -35
-126 -95 -171 -200 -24 -56 -28 -80 -30 -170 -1 -58 4 -150 12 -205 8 -55 15
-140 17 -190 4 -84 2 -94 -26 -147 -32 -63 -103 -141 -169 -186 -24 -16 -100
-59 -170 -96 l-128 -66 -96 0 c-90 0 -103 3 -210 45 -62 25 -117 45 -121 45
-12 0 -159 77 -248 130 -16 10 -73 34 -125 54 -52 20 -124 52 -160 70 -36 19
-99 41 -140 50 -41 8 -111 25 -155 37 -45 12 -121 23 -175 25 -170 7 -344 5
-377 -5 -17 -5 -34 -7 -36 -4 -3 2 -15 -1 -27 -7 -12 -6 -67 -20 -123 -30
-159 -28 -280 -72 -362 -133 -167 -123 -250 -238 -307 -422 -9 -27 -26 -84
-39 -125 -20 -64 -24 -95 -23 -210 0 -129 2 -139 33 -215 40 -97 93 -178 175
-265 33 -36 71 -77 83 -90 47 -55 226 -159 368 -215 39 -15 75 -31 80 -35 6
-5 42 -18 80 -30 81 -26 107 -46 136 -108 21 -42 21 -52 14 -206 -5 -88 -9
-183 -10 -211 -1 -27 -5 -83 -10 -124 -7 -65 -12 -79 -43 -113 -29 -32 -41
-38 -73 -38 -50 0 -109 -36 -139 -85 -26 -41 -37 -137 -23 -199 10 -45 54 -83
163 -140 108 -56 164 -73 635 -200 94 -25 183 -50 199 -56 35 -11 55 8 56 53
0 29 -28 47 -75 47 -28 0 -42 17 -27 32 7 7 29 7 69 -1 32 -7 69 -12 83 -11
34 0 64 32 56 58 -7 21 -28 28 -155 50 -54 9 -68 32 -19 32 18 0 70 -5 114
-11 100 -14 134 -8 134 25 0 32 -14 41 -90 55 -35 7 -82 20 -103 28 -33 14
-37 18 -24 30 12 12 25 11 92 -6 108 -29 133 -28 141 5 4 16 1 39 -9 59 -14
30 -21 33 -92 46 -133 23 -115 66 21 49 93 -12 107 -12 128 3 17 13 17 15 -5
39 -29 31 -99 54 -194 63 -126 11 -188 26 -227 53 -21 15 -38 35 -38 44 0 9
24 45 53 79 28 34 70 85 92 114 22 29 62 81 89 115 62 79 118 192 124 250 7
80 -22 152 -99 243 -217 256 -244 305 -240 449 1 41 7 53 51 101 65 72 142
102 250 101 59 -1 88 -7 133 -28 97 -44 161 -99 196 -168 44 -86 44 -138 -3
-255 -77 -197 -105 -313 -106 -444 0 -48 118 -188 200 -236 25 -14 68 -40 95
-58 80 -52 171 -90 315 -135 74 -22 219 -68 321 -101 160 -51 285 -86 465
-130 64 -16 123 15 77 39 -34 18 -176 62 -199 62 -28 0 -40 16 -25 34 14 17
94 5 186 -28 84 -31 96 -31 125 -8 19 16 21 22 11 40 -6 12 -28 26 -49 32 -20
5 -86 24 -147 40 -60 17 -114 35 -119 40 -19 19 7 29 49 20 22 -5 67 -14 100
-21 33 -6 80 -17 104 -25 81 -26 120 -11 107 41 -5 19 -13 25 -35 25 -15 0
-41 4 -57 9 -16 5 -69 14 -119 21 -49 6 -100 16 -112 21 -77 30 55 40 184 13
42 -8 86 -13 99 -10 24 6 42 43 27 56 -9 8 -127 28 -236 40 -77 8 -90 16 -63
36 26 19 52 18 166 -6 113 -23 153 -25 169 -6 10 11 6 21 -18 49 -56 63 -128
69 -431 35 -225 -25 -296 -12 -375 69 -59 61 -80 116 -79 209 1 83 11 127 45
203 24 52 61 148 100 256 37 102 38 169 4 255 -14 35 -25 67 -25 72 0 14 32 9
74 -12 51 -24 316 -39 382 -21 114 31 271 190 294 296 6 29 7 30 73 33 62 3
75 -1 160 -41 150 -72 267 -168 400 -329 116 -139 207 -276 237 -353 9 -22 23
-53 31 -70 58 -111 45 -295 -28 -402 -54 -79 -36 -88 34 -17 92 95 135 211
134 368 0 72 -41 274 -61 301 -4 6 -11 24 -14 42 -24 109 -249 385 -398 486
-63 43 -225 127 -245 127 -14 0 -63 39 -63 50 0 5 15 12 33 15 27 5 48 -1 113
-36 43 -23 93 -52 110 -63 17 -12 55 -38 85 -58 58 -39 161 -138 219 -208 183
-222 272 -470 256 -714 -8 -130 -36 -212 -102 -295 -93 -119 -111 -161 -75
-181 26 -13 47 -13 63 3 7 6 31 27 52 45 110 95 276 405 276 516 0 13 3 26 7
29 19 20 -19 298 -56 402 -20 57 -91 179 -154 264 -84 114 -268 288 -392 371
-27 19 -54 40 -58 47 -13 21 -115 69 -222 103 -139 45 -152 50 -169 69 -15 16
-12 23 34 84 27 36 50 69 50 73 0 3 8 18 18 32 25 37 47 100 72 214 18 79 21
119 18 215 -7 182 -47 272 -163 365 -86 70 -165 104 -262 115 -60 7 -96 6
-130 -4z m209 -287 c50 -15 109 -57 135 -95 18 -28 42 -122 42 -166 1 -113
-122 -266 -225 -280 -27 -4 -60 -8 -73 -10 -34 -6 -140 46 -179 87 -91 96 -74
315 32 401 91 75 169 93 268 63z"/>
<path d="M3845 4033 c-104 -53 -141 -112 -132 -211 8 -85 37 -133 99 -167 68
-37 129 -37 197 0 139 76 176 248 73 348 -64 63 -152 74 -237 30z"/>
</g>
</svg>
